<svg version="1.1" viewBox="0.0 0.0 512.0 512.0" fill="none" stroke="none" stroke-linecap="square" stroke-miterlimit="10" xmlns:xlink="http://www.w3.org/1999/xlink" xmlns="http://www.w3.org/2000/svg"><clipPath id="p.0"><path d="m0 0l512.0 0l0 512.0l-512.0 0l0 -512.0z" clip-rule="nonzero"/></clipPath><g clip-path="url(#p.0)"><path fill="#000000" fill-opacity="0.0" d="m0 0l512.0 0l0 512.0l-512.0 0z" fill-rule="evenodd"/><path fill="#6a6ae7" d="m0 85.33504c0 -47.12924 38.2058 -85.33504 85.33504 -85.33504l341.3299 0c22.632263 0 44.337585 8.99063 60.341003 24.994055c16.003418 16.003424 24.99405 37.708725 24.99405 60.34098l0 341.3299c0 47.129242 -38.20581 85.33505 -85.33505 85.33505l-341.3299 0c-47.12924 0 -85.33504 -38.20581 -85.33504 -85.33505z" fill-rule="evenodd"/><path fill="#ffffff" d="m256.0 99.24516l135.81097 78.36839l0 156.77502l-135.81097 78.36841l-135.81096 -78.36841l0 -156.77502z" fill-rule="evenodd"/><path fill="#6a6ae7" d="m292.0006 52.00061l0 408.0l-72.0 0l0 -408.0z" fill-rule="evenodd"/></g></svg>