<svg version="1.1" viewBox="0.0 0.0 1000.0 1000.0" fill="none" stroke="none" stroke-linecap="square" stroke-miterlimit="10" xmlns:xlink="http://www.w3.org/1999/xlink" xmlns="http://www.w3.org/2000/svg"><clipPath id="p.0"><path d="m0 0l1000.0 0l0 1000.0l-1000.0 0l0 -1000.0z" clip-rule="nonzero"/></clipPath><g clip-path="url(#p.0)"><path fill="#000000" fill-opacity="0.0" d="m0 0l1000.0 0l0 1000.0l-1000.0 0z" fill-rule="evenodd"/><path fill="#ffffff" d="m-0.005249344 166.6595l0 0c0 -92.0493 74.6207 -166.67 166.67 -166.67l666.66003 0l0 0c44.203613 0 86.5968 17.559824 117.853455 48.816513c31.256714 31.256691 48.81653 73.64986 48.81653 117.853485l0 666.66003c0 92.049255 -74.62073 166.66998 -166.66998 166.66998l-666.66003 0c-92.0493 0 -166.67 -74.62073 -166.67 -166.66998z" fill-rule="evenodd"/><path fill="#000000" fill-opacity="0.0" d="m-0.005249344 0l1000.0 0l0 1000.0l-1000.0 0z" fill-rule="evenodd"/><path fill="#0f1419" d="m158.93262 692.0l136.53125 -373.32812l81.59375 0l136.0 373.32812l-76.265625 0l-100.796875 -291.20312l0 0l-101.328125 291.20312l-75.734375 0zm60.265625 -84.796875l19.203125 -56.0l189.85938 0l18.671875 56.0l-227.73438 0zm342.92645 84.796875l0 -373.32812l139.73438 0q45.328125 0 75.1875 15.46875q29.875 15.46875 44.265625 41.609375q14.40625 26.125 14.40625 59.71875q0 30.9375 -13.875 57.078125q-13.859375 26.125 -43.71875 42.390625q-29.859375 16.265625 -76.265625 16.265625l-67.734375 0l0 140.79688l-72.0 0zm72.0 -198.9375l63.46875 0q34.671875 0 49.859375 -15.71875q15.203125 -15.734375 15.203125 -41.875q0 -27.734375 -15.203125 -42.921875q-15.1875 -15.203125 -49.859375 -15.203125l-63.46875 0l0 115.71875z" fill-rule="nonzero"/></g></svg>