<svg version="1.1" viewBox="0.0 0.0 512.0 512.0" fill="none" stroke="none" stroke-linecap="square" stroke-miterlimit="10" xmlns:xlink="http://www.w3.org/1999/xlink" xmlns="http://www.w3.org/2000/svg"><clipPath id="p.0"><path d="m0 0l512.0 0l0 512.0l-512.0 0l0 -512.0z" clip-rule="nonzero"/></clipPath><g clip-path="url(#p.0)"><path fill="#000000" fill-opacity="0.0" d="m0 0l512.0 0l0 512.0l-512.0 0z" fill-rule="evenodd"/><path fill="#ffffff" d="m0 85.33504c0 -47.12924 38.2058 -85.33504 85.33504 -85.33504l341.3299 0c22.632263 0 44.337585 8.99063 60.341003 24.994055c16.003418 16.003424 24.99405 37.708725 24.99405 60.34098l0 341.3299c0 47.129242 -38.20581 85.33505 -85.33505 85.33505l-341.3299 0c-47.12924 0 -85.33504 -38.20581 -85.33504 -85.33505z" fill-rule="evenodd"/><path fill="#000000" fill-opacity="0.0" d="m-0.0131233595 0l512.0 0l0 512.0l-512.0 0z" fill-rule="evenodd"/><path fill="#000000" d="m85.4532 352.0l68.265625 -186.65625l40.796875 0l67.999985 186.65625l-38.124985 0l-50.40625 -145.59375l0 0l-50.65625 145.59375l-37.875 0zm30.140625 -42.390625l9.59375 -28.0l94.9375 0l9.328125 28.0l-113.859375 0zm171.46547 42.390625l0 -186.65625l69.859375 0q22.65625 0 37.59375 7.734375q14.9375 7.734375 22.125 20.796875q7.203125 13.0625 7.203125 29.859375q0 15.46875 -6.9375 28.546875q-6.921875 13.0625 -21.859375 21.203125q-14.921875 8.125 -38.125 8.125l-33.875 0l0 70.390625l-35.984375 0zm35.984375 -99.46875l31.734375 0q17.34375 0 24.9375 -7.859375q7.59375 -7.875 7.59375 -20.9375q0 -13.859375 -7.59375 -21.453125q-7.59375 -7.609375 -24.9375 -7.609375l-31.734375 0l0 57.859375z" fill-rule="nonzero"/></g></svg>
